<svg width="38" height="27" viewBox="0 0 38 27" fill="none" xmlns="http://www.w3.org/2000/svg">
<path d="M11.628 26.208C18.828 26.208 23.328 20.232 23.328 13.104C23.328 5.90398 18.864 -2.21729e-05 11.7 -2.21729e-05C4.53599 -2.21729e-05 -1.31428e-05 5.97598 -1.31428e-05 13.104C-1.31428e-05 20.304 4.42799 26.208 11.628 26.208ZM11.7 20.016C8.89199 20.016 7.01999 17.136 7.01999 13.104C7.01999 8.99998 8.85599 6.19198 11.628 6.19198C14.4 6.19198 16.308 9.10798 16.308 13.104C16.308 17.172 14.508 20.016 11.7 20.016ZM30.1615 25.704H37.0375V0.323978H31.9615L24.5815 2.41198L25.9135 7.81198L30.1615 6.83998V25.704Z" fill="#222222" fill-opacity="0.2"/>
</svg>
