<svg width="360" height="52" viewBox="0 0 360 52" fill="none" xmlns="http://www.w3.org/2000/svg">
<rect x="1" y="1" width="358" height="50" rx="3" stroke="#1C69D4" stroke-width="2"/>
<path d="M116.235 31H118.699V22.024H123.115V31H125.579V19.8H116.235V31ZM130.058 33.608C131.514 33.608 132.218 32.952 132.874 31.208L136.17 22.424H133.642L131.77 28.264L129.818 22.424H127.242L130.602 31.032C130.394 31.464 130.17 31.592 129.754 31.592C129.434 31.592 129.034 31.448 128.714 31.256L127.898 33.016C128.522 33.384 129.178 33.608 130.058 33.608ZM145.46 22.424H143.028V25.72H140.036V22.424H137.604V31H140.036V27.72H143.028V31H145.46V22.424ZM147.635 31H150.067V28.936L151.171 27.736L153.459 31H156.339L152.787 25.944L155.939 22.424H153.139L150.067 25.944V22.424H147.635V31ZM164.12 22.424H156.568V24.504H159.112V31H161.576V24.504H164.12V22.424ZM165.447 31H169.767C171.831 31 173.063 29.896 173.063 28.088C173.063 26.168 171.623 25.256 169.639 25.256H167.879V22.424H165.447V31ZM169.399 27.096C170.199 27.096 170.615 27.464 170.615 28.056C170.615 28.712 170.215 29.08 169.415 29.08H167.879V27.096H169.399ZM174.199 31H176.631V22.424H174.199V31ZM183.604 22.424V31H188.292C190.276 31 191.492 30.12 191.492 28.664C191.492 27.464 190.852 26.824 189.812 26.504C190.548 26.184 191.172 25.608 191.172 24.568C191.172 23.224 190.036 22.424 188.308 22.424H183.604ZM186.004 25.864V24.216H187.748C188.452 24.216 188.74 24.584 188.74 25C188.74 25.496 188.404 25.864 187.716 25.864H186.004ZM186.004 29.096V27.4H187.86C188.692 27.4 189.028 27.768 189.028 28.232C189.028 28.744 188.676 29.096 187.924 29.096H186.004ZM193.197 31H197.517C199.581 31 200.813 29.896 200.813 28.088C200.813 26.168 199.373 25.256 197.389 25.256H195.629V22.424H193.197V31ZM197.149 27.096C197.949 27.096 198.365 27.464 198.365 28.056C198.365 28.712 197.965 29.08 197.165 29.08H195.629V27.096H197.149ZM201.949 31H204.381V22.424H201.949V31ZM209.021 28.92C209.549 27.656 209.645 26.152 209.661 24.696V24.504H211.949V28.92H209.021ZM213.213 31V33.016H215.261L215.549 28.92H214.381V22.424H207.373V23.16C207.373 25.224 207.261 27.384 206.541 28.92H205.613V33.016H207.661L207.837 31H213.213ZM219.301 31.16C220.485 31.16 221.301 30.728 221.893 30.072V31H224.245V26.024C224.245 24.872 223.957 23.928 223.317 23.288C222.709 22.68 221.749 22.328 220.421 22.328C218.965 22.328 218.037 22.6 217.093 23.016L217.701 24.872C218.485 24.584 219.141 24.408 220.069 24.408C221.285 24.408 221.909 24.968 221.909 25.976V26.12C221.301 25.912 220.677 25.768 219.813 25.768C217.781 25.768 216.357 26.632 216.357 28.504C216.357 30.232 217.685 31.16 219.301 31.16ZM220.037 29.48C219.253 29.48 218.709 29.096 218.709 28.44C218.709 27.64 219.349 27.224 220.389 27.224C220.981 27.224 221.525 27.352 221.941 27.544V27.976C221.941 28.856 221.173 29.48 220.037 29.48ZM228.562 22.424H226.098V25.8C226.098 27.592 227.378 28.568 229.09 28.568C229.954 28.568 230.818 28.296 231.41 28.008V31H233.858V22.424H231.41V26.104C230.93 26.344 230.402 26.52 229.746 26.52C228.946 26.52 228.562 26.008 228.562 25.112V22.424ZM244.025 22.424H241.737L238.393 27.432V22.424H236.041V31H238.329L241.673 26.008V31H244.025V22.424Z" fill="#1C69D4"/>
</svg>
