<svg width="360" height="52" viewBox="0 0 360 52" fill="none" xmlns="http://www.w3.org/2000/svg">
<rect x="1" y="1" width="358" height="50" rx="3" stroke="#3CA255" stroke-width="2"/>
<path d="M121.515 29.352H123.787V26.472H126.683V24.264H123.787V21.384H121.515V24.264H118.619V26.472H121.515V29.352ZM129.11 31H131.894L136.918 21.656V19.8H128.854V21.928H134.118L129.11 31ZM147.845 33.256L148.917 31.64C146.757 30.136 145.829 28.664 145.829 26.408C145.829 24.152 146.757 22.68 148.917 21.176L147.845 19.56C144.901 21.16 143.413 23.336 143.413 26.408C143.413 29.48 144.901 31.656 147.845 33.256ZM154.426 31.192C157.61 31.192 159.322 28.712 159.322 25.08C159.322 22.84 158.794 21.624 157.994 20.824C157.146 19.976 156.266 19.608 154.762 19.608C152.234 19.608 150.49 21.272 150.49 23.528C150.49 25.832 152.058 27.176 154.49 27.176C155.466 27.176 156.218 26.872 156.762 26.408C156.602 27.912 155.866 28.952 154.49 28.952C153.546 28.952 152.858 28.648 152.042 27.992L150.746 29.864C151.69 30.648 152.794 31.192 154.426 31.192ZM154.89 25.128C153.674 25.128 152.938 24.44 152.938 23.448C152.938 22.424 153.626 21.72 154.842 21.72C156.074 21.72 156.81 22.44 156.81 23.432C156.81 24.424 156.106 25.128 154.89 25.128ZM160.815 31H169.103V28.872H164.223L166.047 27.464C168.031 25.928 168.991 25 168.991 23.128C168.991 21 167.455 19.64 165.135 19.64C163.135 19.64 162.063 20.456 160.959 21.96L162.687 23.352C163.519 22.328 164.111 21.848 164.975 21.848C165.855 21.848 166.479 22.36 166.479 23.304C166.479 24.232 165.935 24.84 164.543 25.992L160.815 29.048V31ZM175.04 31.16C177.52 31.16 179.36 29.944 179.36 27.864C179.36 26.504 178.688 25.784 177.552 25.192C178.416 24.664 178.976 23.944 178.976 22.744C178.976 20.984 177.408 19.64 175.04 19.64C172.672 19.64 171.104 21 171.104 22.712C171.104 23.944 171.664 24.664 172.528 25.192C171.344 25.736 170.72 26.536 170.72 27.896C170.72 29.88 172.56 31.16 175.04 31.16ZM175.04 24.376C174.064 24.376 173.44 23.784 173.44 23C173.44 22.28 174.032 21.672 175.04 21.672C176.048 21.672 176.64 22.296 176.64 22.984C176.64 23.8 176.016 24.376 175.04 24.376ZM175.04 29.128C173.824 29.128 173.104 28.504 173.104 27.736C173.104 26.84 173.92 26.328 175.04 26.328C176.16 26.328 176.976 26.84 176.976 27.704C176.976 28.52 176.256 29.128 175.04 29.128ZM181.822 33.256C184.766 31.656 186.254 29.48 186.254 26.408C186.254 23.336 184.766 21.16 181.822 19.56L180.75 21.176C182.91 22.68 183.838 24.152 183.838 26.408C183.838 28.664 182.91 30.136 180.75 31.64L181.822 33.256ZM194.848 31H197.28V19.72H195.6L192.384 20.68L192.896 22.696L194.848 22.216V31ZM204.574 31.192C207.566 31.192 209.566 28.648 209.566 25.4C209.566 22.12 207.566 19.608 204.606 19.608C201.63 19.608 199.614 22.152 199.614 25.4C199.614 28.68 201.582 31.192 204.574 31.192ZM204.606 28.968C203.118 28.968 202.142 27.448 202.142 25.4C202.142 23.32 203.102 21.832 204.574 21.832C206.046 21.832 207.038 23.368 207.038 25.4C207.038 27.464 206.094 28.968 204.606 28.968ZM211.375 31H214.159L219.183 21.656V19.8H211.119V21.928H216.383L211.375 31ZM220.253 27.208H225.181V24.872H220.253V27.208ZM231.024 31.16C233.504 31.16 235.344 29.944 235.344 27.864C235.344 26.504 234.672 25.784 233.536 25.192C234.4 24.664 234.96 23.944 234.96 22.744C234.96 20.984 233.392 19.64 231.024 19.64C228.656 19.64 227.088 21 227.088 22.712C227.088 23.944 227.648 24.664 228.512 25.192C227.328 25.736 226.704 26.536 226.704 27.896C226.704 29.88 228.544 31.16 231.024 31.16ZM231.024 24.376C230.048 24.376 229.424 23.784 229.424 23C229.424 22.28 230.016 21.672 231.024 21.672C232.032 21.672 232.624 22.296 232.624 22.984C232.624 23.8 232 24.376 231.024 24.376ZM231.024 29.128C229.808 29.128 229.088 28.504 229.088 27.736C229.088 26.84 229.904 26.328 231.024 26.328C232.144 26.328 232.96 26.84 232.96 27.704C232.96 28.52 232.24 29.128 231.024 29.128ZM241.887 31.192C244.878 31.192 246.879 28.648 246.879 25.4C246.879 22.12 244.878 19.608 241.919 19.608C238.943 19.608 236.927 22.152 236.927 25.4C236.927 28.68 238.895 31.192 241.887 31.192ZM241.919 28.968C240.431 28.968 239.455 27.448 239.455 25.4C239.455 23.32 240.415 21.832 241.887 21.832C243.359 21.832 244.351 23.368 244.351 25.4C244.351 27.464 243.407 28.968 241.919 28.968ZM248.55 27.208H253.478V24.872H248.55V27.208ZM259.321 31.16C261.801 31.16 263.641 29.944 263.641 27.864C263.641 26.504 262.969 25.784 261.833 25.192C262.697 24.664 263.257 23.944 263.257 22.744C263.257 20.984 261.689 19.64 259.321 19.64C256.953 19.64 255.385 21 255.385 22.712C255.385 23.944 255.945 24.664 256.809 25.192C255.625 25.736 255.001 26.536 255.001 27.896C255.001 29.88 256.841 31.16 259.321 31.16ZM259.321 24.376C258.345 24.376 257.721 23.784 257.721 23C257.721 22.28 258.313 21.672 259.321 21.672C260.329 21.672 260.921 22.296 260.921 22.984C260.921 23.8 260.297 24.376 259.321 24.376ZM259.321 29.128C258.105 29.128 257.385 28.504 257.385 27.736C257.385 26.84 258.201 26.328 259.321 26.328C260.441 26.328 261.257 26.84 261.257 27.704C261.257 28.52 260.537 29.128 259.321 29.128ZM270.183 31.192C273.175 31.192 275.175 28.648 275.175 25.4C275.175 22.12 273.175 19.608 270.215 19.608C267.239 19.608 265.223 22.152 265.223 25.4C265.223 28.68 267.191 31.192 270.183 31.192ZM270.215 28.968C268.727 28.968 267.751 27.448 267.751 25.4C267.751 23.32 268.711 21.832 270.183 21.832C271.655 21.832 272.647 23.368 272.647 25.4C272.647 27.464 271.703 28.968 270.215 28.968Z" fill="#3CA255"/>
<path d="M110 25.1304C110 33.0491 103.407 39.4684 95.2727 39.4684C92.6903 39.4684 90.2643 38.8208 88.1537 37.6843L80 40.2264L82.6583 32.5337C81.3173 30.3733 80.545 27.8393 80.545 25.1304C80.545 17.2117 87.1387 10.7925 95.273 10.7925C103.408 10.7925 110 17.2117 110 25.1304ZM95.2727 13.0759C88.4447 13.0759 82.8907 18.4836 82.8907 25.1304C82.8907 27.7684 83.767 30.211 85.2493 32.1982L83.7023 36.6747L88.4607 35.1909C90.4157 36.4504 92.7577 37.1849 95.273 37.1849C102.1 37.1849 107.655 31.7779 107.655 25.1307C107.655 18.4839 102.1 13.0759 95.2727 13.0759ZM102.71 28.4326C102.619 28.2864 102.378 28.1981 102.018 28.0225C101.656 27.8468 99.881 26.9962 99.551 26.8798C99.22 26.7624 98.9787 26.7035 98.7383 27.0551C98.498 27.407 97.806 28.1981 97.595 28.4326C97.3843 28.6677 97.174 28.6972 96.8127 28.5212C96.452 28.3456 95.289 27.9741 93.91 26.7768C92.837 25.8457 92.1123 24.6954 91.9017 24.3435C91.6913 23.992 91.8797 23.802 92.06 23.627C92.2227 23.4694 92.4213 23.2166 92.6017 23.0115C92.7827 22.8061 92.8427 22.6599 92.9623 22.4251C93.0833 22.1906 93.023 21.9856 92.9323 21.8093C92.8423 21.6337 92.1197 19.9043 91.819 19.2008C91.5183 18.4973 91.218 18.6144 91.007 18.6144C90.7967 18.6144 90.5557 18.585 90.315 18.585C90.0743 18.585 89.683 18.6729 89.352 19.0245C89.0213 19.3764 88.089 20.2267 88.089 21.9558C88.089 23.6852 89.382 25.3561 89.563 25.5906C89.7433 25.8247 92.0597 29.4889 95.7297 30.8962C99.4 32.3025 99.4 31.8332 100.062 31.7743C100.723 31.7158 102.197 30.9243 102.499 30.1041C102.799 29.2826 102.799 28.5791 102.71 28.4326Z" fill="#3CA255"/>
</svg>
